<?xml version="1.0" encoding="utf-8"?>
<svg version="1.1" xmlns="http://www.w3.org/2000/svg" xmlns:xlink="http://www.w3.org/1999/xlink" x="0px" y="0px"
	 viewBox="0 0 80 80" style="enable-background:new 0 0 80 80;" xml:space="preserve">
<style type="text/css">
	.button {fill: #398684;}
	.arrow {fill: #FFFFFF;}
</style>

<circle class="button" cx="40" cy="40" r="40"/>
<path class="arrow" d="M42.4,31.3l8.2,7.9c0.2,0.2,0.3,0.5,0.3,0.8s-0.1,0.6-0.3,0.8l-8.2,7.9c-0.4,0.4-1.2,0.4-1.6,0
	c-0.4-0.4-0.4-1.2,0-1.6l6.2-5.9H31.1c-0.6,0-1.1-0.5-1.1-1.1s0.5-1.1,1.1-1.1h15.9l-6.2-5.9c-0.5-0.4-0.5-1.1,0-1.6
	C41.2,30.9,41.9,30.9,42.4,31.3z"/>
</svg>
