<?xml version="1.0" encoding="utf-8"?>
<!-- Generator: Adobe Illustrator 26.0.3, SVG Export Plug-In . SVG Version: 6.00 Build 0)  -->
<svg version="1.1" id="Laag_1" xmlns="http://www.w3.org/2000/svg" xmlns:xlink="http://www.w3.org/1999/xlink" x="0px" y="0px"
	 viewBox="0 0 4748.2 950.4" style="enable-background:new 0 0 4748.2 950.4;" xml:space="preserve">
<style type="text/css">
	.st0{fill:#398684;}
</style>
<path class="st0" d="M1118.6,760.3h-146c-12.2,0-22-9.9-22-22V22c0-12.1-9.9-22-22-22h-146c-12.1,0-22,9.9-22,22v146
	c0,12.1-9.9,22-22,22h-146c-12.1,0-22,9.9-22,22v146c0,12.2-9.9,22-22,22v0h-146l0,0c-12.2,0-22-9.9-22-22l0,0v-146
	c0-12.1-9.9-22-22-22h-146c-12.1,0-22-9.9-22-22V22c0-12.1-9.9-22-22-22H22C9.9,0,0,9.9,0,22v906.1c0,12.1,9.9,22,22,22h146
	c12.1,0,22-9.9,22-22V402.2c0-12.1,9.9-22,22-22h146c12.2,0,22,9.9,22,22v146c0,12.1,9.9,22,22,22h146c12.1,0,22-9.9,22-22v-146
	c0-12.2,9.9-22,22-22h146c12.1,0,22,9.9,22,22v336c0,12.1,9.9,22,22,22h146c12.2,0,22,9.9,22,22v146c0,12.1,9.9,22,22,22h146
	c12.1,0,22-9.9,22-22v-146C1140.6,770.2,1130.7,760.3,1118.6,760.3z"/>
<path class="st0" d="M2181.3,369.8c-21.6-11.3-46.1-17-73.3-17c-25.6,0-49.5,6.2-71.8,18.6c-22.3,12.4-38.6,29.1-49.1,50
	c-11.8-22.2-28.5-39.2-50.4-51c-21.8-11.7-46.6-17.6-74.3-17.6c-20.6,0-39.9,4-57.9,12c-18,8-32.9,19.1-44.7,33.4v-39.7H1688
	l0,259.7c0,5-4,9-9,9l0,0c-0.9-0.2-1.8-0.3-2.8-0.3h-53.5c-6.8,0-12.3,5.5-12.3,12.3v53.5c0,6.8,5.5,12.3,12.3,12.3h53.5
	c6.8,0,12.3-5.5,12.3-12.3v-53.5c0-1.1-0.2-2.1-0.4-3.1c0.1-4.9,4.1-8.8,9-8.8h62.7V511.4c0-31.1,7.9-54.9,23.6-71.5
	c15.7-16.6,37-24.9,63.9-24.9c26.9,0,48.1,8.3,63.6,24.9c15.5,16.6,23.3,40.4,23.3,71.5v193.9h71.1V511.4c0-31.1,7.9-54.9,23.6-71.5
	c15.7-16.6,37-24.9,63.9-24.9c26.9,0,48,8.3,63.6,24.9c15.5,16.6,23.3,40.4,23.3,71.5v193.9h71.1V500.7c0-31.5-6.2-58.3-18.6-80.6
	C2219.9,397.9,2202.9,381.1,2181.3,369.8z"/>
<path class="st0" d="M2602.1,408.8c-12.2-15.9-28.4-29.3-48.8-40c-20.4-10.7-44.2-16.1-71.5-16.1c-30.2,0-57.8,7.5-82.8,22.4
	c-25,14.9-44.7,35.8-59.2,62.6c-14.5,26.9-21.7,57.7-21.7,92.5c0,34.8,7.2,66,21.7,93.5c14.5,27.5,34.1,48.9,58.9,64.2
	c24.8,15.3,52,23,81.8,23c26.9,0,50.8-5.5,71.8-16.4c21-10.9,37.6-24.5,49.7-40.9v51.6h72.4V358.4h-72.4V408.8z M2587.3,594.2
	c-9.9,17.8-22.8,31.4-38.7,40.6c-16,9.2-33.2,13.9-51.6,13.9c-18,0-35.2-4.7-51.3-14.2c-16.2-9.4-29.2-23.2-39-41.2
	c-9.9-18-14.8-39-14.8-63c0-23.9,4.9-44.6,14.8-62c9.9-17.4,22.8-30.6,38.7-39.7c15.9-9,33.1-13.5,51.6-13.5
	c18.5,0,35.7,4.6,51.6,13.8c15.9,9.2,28.8,22.7,38.7,40.3c9.9,17.6,14.8,38.4,14.8,62.3C2602.1,555.5,2597.1,576.3,2587.3,594.2z"/>
<path class="st0" d="M3028.9,406.9c-13-16.4-30.5-29.5-52.6-39.3c-22-9.9-44.4-14.8-67-14.8c-30.6,0-58.4,7.5-83.4,22.4
	c-25,14.9-44.7,35.8-59.2,62.6c-14.5,26.9-21.7,57.7-21.7,92.5c0,34.8,7.2,66,21.7,93.5c14.5,27.5,34.2,48.9,59.2,64.2
	c25,15.3,52.6,23,82.8,23c26.9,0,50.7-5.5,71.5-16.4c20.8-10.9,37-24.8,48.8-41.5v52.3h72.4V239.4h-72.4V406.9z M3014.1,594.2
	c-9.9,17.8-22.8,31.4-38.7,40.6c-16,9.2-33.2,13.9-51.6,13.9c-18,0-35.2-4.7-51.3-14.2c-16.2-9.4-29.2-23.2-39-41.2
	c-9.9-18-14.8-39-14.8-63c0-23.9,4.9-44.6,14.8-62c9.9-17.4,22.8-30.6,38.7-39.7c15.9-9,33.1-13.5,51.6-13.5
	c18.5,0,35.7,4.6,51.6,13.8c15.9,9.2,28.8,22.7,38.7,40.3c9.9,17.6,14.8,38.4,14.8,62.3C3028.9,555.5,3024,576.3,3014.1,594.2z"/>
<path class="st0" d="M3455.7,408.8c-12.2-15.9-28.4-29.3-48.8-40c-20.4-10.7-44.2-16.1-71.5-16.1c-30.2,0-57.8,7.5-82.8,22.4
	c-25,14.9-44.7,35.8-59.2,62.6c-14.5,26.9-21.7,57.7-21.7,92.5c0,34.8,7.2,66,21.7,93.5c14.5,27.5,34.1,48.9,58.9,64.2
	c24.8,15.3,52,23,81.8,23c26.9,0,50.8-5.5,71.8-16.4c21-10.9,37.6-24.5,49.7-40.9v51.6h72.4V358.4h-72.4V408.8z M3440.9,594.2
	c-9.9,17.8-22.8,31.4-38.7,40.6c-16,9.2-33.2,13.9-51.6,13.9c-18,0-35.2-4.7-51.3-14.2c-16.2-9.4-29.2-23.2-39-41.2
	c-9.9-18-14.8-39-14.8-63c0-23.9,4.9-44.6,14.8-62c9.9-17.4,22.8-30.6,38.7-39.7c15.9-9,33.1-13.5,51.6-13.5
	c18.5,0,35.7,4.6,51.6,13.8c15.9,9.2,28.8,22.7,38.7,40.3c9.9,17.6,14.8,38.4,14.8,62.3C3455.7,555.5,3450.8,576.3,3440.9,594.2z"/>
<path class="st0" d="M3821.1,524.3c-16.2-6.9-36.8-13.7-62-20.5c-18.9-5.4-33.2-10-42.8-13.5c-9.7-3.6-17.8-8.5-24.6-14.8
	c-6.7-6.3-10.1-14.1-10.1-23.3c0-11.7,5-21.2,15.1-28.3c10.1-7.1,24.5-10.7,43.4-10.7c19.3,0,34.6,4.6,46,13.8
	c11.3,9.2,17.6,21.6,18.9,37.1h71.8c-1.7-34.4-14.6-61.6-38.7-81.5c-24.1-19.9-55.9-29.9-95.4-29.9c-26.4,0-49.8,4.4-70.2,13.2
	c-20.4,8.8-36,20.9-46.9,36.2c-10.9,15.3-16.4,32.2-16.4,50.7c0,22.7,6,40.9,17.9,54.8c12,13.9,26.1,24.1,42.5,30.8
	c16.4,6.7,37.6,13.6,63.6,20.8c26.8,7.6,46.5,14.5,58.9,20.8c12.4,6.3,18.6,16,18.6,29c0,12.2-5.6,22.1-16.7,29.9
	c-11.1,7.8-26.8,11.6-46.9,11.6c-19.3,0-35.4-4.9-48.2-14.8c-12.8-9.9-19.8-22.1-21.1-36.8h-74.3c0.8,21,7.6,40,20.1,57
	c12.6,17,29.7,30.4,51.3,40.3c21.6,9.9,46.1,14.8,73.3,14.8c26.9,0,50.3-4.4,70.2-13.2c19.9-8.8,35.4-21,46.3-36.5
	c10.9-15.5,16.4-33.1,16.4-52.9c-0.4-22.2-6.5-40.1-18.3-53.5C3851.2,541.4,3837.3,531.2,3821.1,524.3z"/>
<path class="st0" d="M4033.7,272.2h-72.4V609c0,34,8.6,58.5,25.8,73.6c17.2,15.1,42,22.7,74.3,22.7h56.7v-59.8H4074
	c-14.7,0-25.1-2.8-31.2-8.5c-6.1-5.7-9.1-15-9.1-28V417h84.4v-58.5h-84.4V272.2z"/>
<path class="st0" d="M4420.8,374.2c-25.6-14.3-54.8-21.4-87.5-21.4c-34,0-64.1,7.3-90.3,22c-26.2,14.7-46.6,35.6-61.1,62.6
	c-14.5,27.1-21.7,58.4-21.7,94.1c0,35.7,7.4,67,22.3,94.1c14.9,27.1,35.5,48.1,61.7,63c26.2,14.9,55.9,22.3,89.1,22.3
	c40.7,0,74.8-10.2,102.3-30.5c27.5-20.4,46.5-46.5,57-78.4h-77.4c-16,32.3-43.2,48.5-81.8,48.5c-26.9,0-49.5-8.4-68-25.2
	c-18.5-16.8-28.7-39-30.8-66.7h265c1.7-10.5,2.5-22.2,2.5-35.3c0-33.6-7.1-63.3-21.4-89.1C4466.4,408.5,4446.4,388.4,4420.8,374.2z
	 M4235.1,500.7c3.4-26.9,13.9-48.2,31.5-63.9c17.6-15.7,38.8-23.6,63.6-23.6c27.3,0,50.1,8,68.6,23.9c18.5,16,27.9,37.1,28.3,63.6
	H4235.1z"/>
<path class="st0" d="M4644.3,408.8v-50.4h-71.8v346.9h71.8V522.7c0-35.3,7.2-60,21.7-74.3c14.5-14.3,35.8-21.4,63.9-21.4h18.3v-74.3
	c-23.9,0-44.6,4.9-62,14.8C4668.7,377.4,4654.8,391.2,4644.3,408.8z"/>
</svg>
