<?xml version="1.0" encoding="utf-8"?>
<svg version="1.1" id="Laag_1" xmlns="http://www.w3.org/2000/svg" xmlns:xlink="http://www.w3.org/1999/xlink" x="0px" y="0px"
	 viewBox="0 0 991 991" xml:space="preserve">
<style type="text/css">
	.style{fill:none;stroke:#398684;stroke-width:0.5;stroke-miterlimit:10;}
</style>
<path class="style" d="M495.5,931.1c0,32.8-26.6,59.4-59.4,59.4H59.9c-32.8,0-59.4-26.6-59.4-59.4V554.9c0-32.8,26.6-59.4,59.4-59.4
	h376.2c32.8,0,59.4-26.6,59.4-59.4V59.9c0-32.8,26.6-59.4,59.4-59.4h376.2c32.8,0,59.4,26.6,59.4,59.4v376.2
	c0,32.8-26.6,59.4-59.4,59.4H554.9c-32.8,0-59.4,26.6-59.4,59.4V931.1z"/>
</svg>
